PathFileType	4	(X/Y/Z)	 control3min.trc
DataRate	CameraRate	NumFrames	NumMarkers	Units	OrigDataRate	OrigDataStartFrame	OrigNumFrames
200	200	9	43	m	200	251	1000
Frame#	Time	C7			LSH			RSH			MAN			RASI			LASI			HIPR			HIPL			RPSI			LPSI			COX			RTHI1			RTHI2			RTHI3			RTHI4			RLKN			RMKN			RSHA1			RSHA2			RSHA3			RSHA4			RLMAL			RMMAL			RHEEL			RMET5			RMET1			RTOE			LTHI1			LTHI2			LTHI3			LTHI4			LLKN			LMKN			LSHA1			LSHA2			LSHA3			LSHA4			LLMAL			LMMAL			LHEEL			LMET5			LMET1			LTOE			
		X1	Y1	Z1	X2	Y2	Z2	X3	Y3	Z3	X4	Y4	Z4	X5	Y5	Z5	X6	Y6	Z6	X7	Y7	Z7	X8	Y8	Z8	X9	Y9	Z9	X10	Y10	Z10	X11	Y11	Z11	X12	Y12	Z12	X13	Y13	Z13	X14	Y14	Z14	X15	Y15	Z15	X16	Y16	Z16	X17	Y17	Z17	X18	Y18	Z18	X19	Y19	Z19	X20	Y20	Z20	X21	Y21	Z21	X22	Y22	Z22	X23	Y23	Z23	X24	Y24	Z24	X25	Y25	Z25	X26	Y26	Z26	X27	Y27	Z27	X28	Y28	Z28	X29	Y29	Z29	X30	Y30	Z30	X31	Y31	Z31	X32	Y32	Z32	X33	Y33	Z33	X34	Y34	Z34	X35	Y35	Z35	X36	Y36	Z36	X37	Y37	Z37	X38	Y38	Z38	X39	Y39	Z39	X40	Y40	Z40	X41	Y41	Z41	X42	Y42	Z42	X43	Y43	Z43	
251	1.2550	-0.238570	1.372761	-0.523431	-0.161957	1.360791	-0.691020	-0.153589	1.347291	-0.378159	-0.110997	1.313069	-0.533999	-0.088990	0.887391	-0.419215	-0.103542	0.893991	-0.664428	-0.138450	0.945447	-0.395025	-0.155699	0.957172	-0.682576	-0.254410	0.923749	-0.500896	-0.260820	0.922050	-0.565615	-0.262578	0.918926	-0.533747	-0.173698	0.695232	-0.366080	-0.152499	0.639364	-0.364849	-0.090806	0.658166	-0.364423	-0.103978	0.718526	-0.365236	-0.131725	0.451069	-0.387555	-0.124446	0.438192	-0.508472	-0.239914	0.310703	-0.389175	-0.247128	0.271547	-0.398170	-0.197396	0.253006	-0.382437	-0.182601	0.294303	-0.376395	-0.253889	0.123272	-0.413304	-0.237605	0.126730	-0.491033	-0.306702	0.123103	-0.446529	-0.171249	0.034803	-0.400484	-0.139577	0.045163	-0.469640	-0.114777	0.034740	-0.472916	-0.201818	0.714297	-0.713733	-0.180610	0.656828	-0.720413	-0.118709	0.674310	-0.729511	-0.132848	0.732623	-0.724776	-0.144760	0.440810	-0.712080	-0.125033	0.441084	-0.595961	-0.260328	0.282020	-0.694378	-0.270003	0.244376	-0.681548	-0.212723	0.229276	-0.701829	-0.210137	0.271703	-0.711659	-0.265167	0.130265	-0.678913	-0.248787	0.132318	-0.602489	-0.313727	0.138241	-0.628200	-0.194889	0.038826	-0.687517	-0.158071	0.046481	-0.622467	-0.137028	0.036316	-0.620351	
252	1.2600	-0.238451	1.367090	-0.523588	-0.161362	1.355068	-0.691643	-0.153026	1.341451	-0.377880	-0.110231	1.307227	-0.534172	-0.089068	0.881731	-0.418888	-0.103318	0.888160	-0.664573	-0.138802	0.939401	-0.394672	-0.155469	0.951108	-0.683015	-0.254732	0.918150	-0.500953	-0.260986	0.916539	-0.565772	-0.262850	0.913362	-0.533848	-0.173700	0.689203	-0.365815	-0.152200	0.633465	-0.364535	-0.090618	0.652582	-0.364048	-0.104099	0.712872	-0.364898	-0.130376	0.445364	-0.387518	-0.123204	0.432318	-0.507687	-0.240194	0.306187	-0.388771	-0.247890	0.267226	-0.397770	-0.198124	0.248179	-0.382701	-0.182909	0.289304	-0.376734	-0.255984	0.119905	-0.413500	-0.240724	0.123710	-0.491522	-0.309335	0.119475	-0.446370	-0.172277	0.034144	-0.400048	-0.140289	0.045205	-0.469546	-0.114989	0.034624	-0.472855	-0.201604	0.708167	-0.714043	-0.180304	0.650746	-0.720915	-0.118435	0.668368	-0.730037	-0.132657	0.726649	-0.725130	-0.143094	0.434690	-0.712895	-0.123819	0.434686	-0.597334	-0.261366	0.278390	-0.695536	-0.271766	0.241033	-0.682773	-0.214021	0.225251	-0.701492	-0.210970	0.267555	-0.711772	-0.267490	0.126921	-0.678535	-0.252382	0.129663	-0.601742	-0.317168	0.134666	-0.628410	-0.195758	0.038350	-0.687819	-0.158644	0.046544	-0.622100	-0.137106	0.036172	-0.619981	
253	1.2650	-0.238370	1.361596	-0.523744	-0.160836	1.349489	-0.692366	-0.152601	1.335768	-0.377476	-0.109410	1.301513	-0.534346	-0.089129	0.876143	-0.418476	-0.103071	0.882372	-0.664757	-0.139252	0.933303	-0.394270	-0.155304	0.944960	-0.683514	-0.255115	0.912496	-0.500997	-0.261200	0.910995	-0.565921	-0.263177	0.907761	-0.533941	-0.173695	0.683414	-0.365421	-0.151896	0.627804	-0.364167	-0.090423	0.647240	-0.363658	-0.104218	0.707457	-0.364464	-0.129256	0.440072	-0.387480	-0.121973	0.426814	-0.506951	-0.240283	0.301867	-0.388353	-0.248371	0.263111	-0.397299	-0.198525	0.243673	-0.382999	-0.183013	0.284665	-0.377104	-0.257556	0.116565	-0.413693	-0.243168	0.120729	-0.491961	-0.311602	0.115921	-0.446289	-0.172775	0.033500	-0.399750	-0.140692	0.045167	-0.469482	-0.114998	0.034548	-0.472843	-0.201398	0.701956	-0.714485	-0.179977	0.644587	-0.721477	-0.118131	0.662367	-0.730523	-0.132467	0.720616	-0.725515	-0.141722	0.428928	-0.713631	-0.122517	0.428339	-0.598715	-0.261993	0.274908	-0.696848	-0.273151	0.237819	-0.684200	-0.214909	0.221377	-0.701225	-0.211365	0.263550	-0.711872	-0.269404	0.123603	-0.678245	-0.255215	0.126893	-0.601145	-0.320178	0.131145	-0.628643	-0.196332	0.037698	-0.688097	-0.159000	0.046454	-0.621856	-0.137100	0.036032	-0.619620	
254	1.2700	-0.238329	1.356399	-0.523892	-0.160398	1.344143	-0.693178	-0.152331	1.330335	-0.376945	-0.108574	1.296032	-0.534523	-0.089186	0.870725	-0.417967	-0.102833	0.876682	-0.664985	-0.139804	0.927216	-0.393816	-0.155223	0.938746	-0.684068	-0.255584	0.906828	-0.501026	-0.261481	0.905449	-0.566065	-0.263586	0.902168	-0.534025	-0.173704	0.678086	-0.364882	-0.151631	0.622587	-0.363743	-0.090259	0.642326	-0.363287	-0.104342	0.702464	-0.363972	-0.128465	0.435329	-0.387429	-0.120878	0.421892	-0.506391	-0.240174	0.297768	-0.387944	-0.248572	0.259231	-0.396773	-0.198602	0.239505	-0.383331	-0.182885	0.280413	-0.377514	-0.258821	0.113328	-0.413901	-0.245094	0.117794	-0.492370	-0.313579	0.112491	-0.446285	-0.173245	0.032857	-0.399415	-0.140989	0.045173	-0.469458	-0.114926	0.034501	-0.472758	-0.201203	0.695792	-0.715081	-0.179617	0.638482	-0.722080	-0.117788	0.656436	-0.730945	-0.132284	0.714652	-0.725945	-0.140740	0.423725	-0.714263	-0.121169	0.422205	-0.600002	-0.262268	0.271471	-0.698174	-0.274135	0.234636	-0.685630	-0.215505	0.217557	-0.701015	-0.211430	0.259591	-0.711945	-0.271118	0.120350	-0.678014	-0.257544	0.124096	-0.600650	-0.322843	0.127729	-0.628868	-0.196988	0.037095	-0.688561	-0.159371	0.046417	-0.621668	-0.137120	0.035914	-0.619382	
255	1.2750	-0.238320	1.351622	-0.524023	-0.160060	1.339135	-0.694041	-0.152219	1.325235	-0.376303	-0.107774	1.290905	-0.534706	-0.089251	0.865592	-0.417358	-0.102623	0.871173	-0.665274	-0.140475	0.921231	-0.393305	-0.155253	0.932522	-0.684667	-0.256150	0.901204	-0.501049	-0.261845	0.899950	-0.566209	-0.264092	0.896641	-0.534112	-0.173747	0.673430	-0.364221	-0.151456	0.618014	-0.363280	-0.090167	0.638000	-0.362954	-0.104479	0.698074	-0.363450	-0.128065	0.431254	-0.387376	-0.120040	0.417729	-0.506125	-0.239961	0.294028	-0.387582	-0.248619	0.255683	-0.396234	-0.198490	0.235695	-0.383707	-0.182615	0.276551	-0.377979	-0.259978	0.110290	-0.414127	-0.246690	0.114975	-0.492766	-0.315327	0.109255	-0.446361	-0.173634	0.032410	-0.399182	-0.141308	0.045227	-0.469446	-0.114841	0.034472	-0.472674	-0.201024	0.689898	-0.715801	-0.179231	0.632651	-0.722666	-0.117426	0.650793	-0.731279	-0.132129	0.708975	-0.726406	-0.140175	0.419236	-0.714772	-0.119874	0.416478	-0.601077	-0.262384	0.268103	-0.699362	-0.274880	0.231503	-0.686902	-0.215982	0.213803	-0.700813	-0.211379	0.255719	-0.711959	-0.272755	0.117212	-0.677786	-0.259585	0.121376	-0.600196	-0.325202	0.124452	-0.629009	-0.197612	0.036614	-0.689018	-0.159845	0.046499	-0.621550	-0.137145	0.035819	-0.619234	
256	1.2800	-0.238333	1.347387	-0.524130	-0.159824	1.334569	-0.694906	-0.152246	1.320572	-0.375606	-0.107064	1.286265	-0.534892	-0.089339	0.860885	-0.416641	-0.102460	0.865948	-0.665641	-0.141281	0.915461	-0.392722	-0.155402	0.926368	-0.685295	-0.256808	0.895740	-0.501094	-0.262273	0.894596	-0.566379	-0.264694	0.891303	-0.534223	-0.173824	0.669602	-0.363506	-0.151397	0.614241	-0.362824	-0.090159	0.634379	-0.362676	-0.104618	0.694412	-0.362933	-0.128015	0.427865	-0.387360	-0.119568	0.414406	-0.506202	-0.239776	0.290773	-0.387290	-0.248636	0.252574	-0.395754	-0.198352	0.232314	-0.384138	-0.182331	0.273138	-0.378487	-0.261104	0.107567	-0.414379	-0.248066	0.112366	-0.493183	-0.316835	0.106309	-0.446522	-0.173963	0.032049	-0.399035	-0.141645	0.045285	-0.469436	-0.114797	0.034442	-0.472557	-0.200850	0.684566	-0.716574	-0.178855	0.627382	-0.723176	-0.117065	0.645688	-0.731502	-0.131976	0.703850	-0.726891	-0.140025	0.415517	-0.715119	-0.118731	0.411406	-0.601854	-0.262552	0.264890	-0.700267	-0.275547	0.228529	-0.687833	-0.216515	0.210238	-0.700560	-0.211427	0.252031	-0.711871	-0.274361	0.114264	-0.677506	-0.261448	0.118837	-0.599757	-0.327262	0.121435	-0.629050	-0.198133	0.036179	-0.689385	-0.160307	0.046608	-0.621477	-0.137168	0.035737	-0.619112	
257	1.2850	-0.238347	1.343793	-0.524207	-0.159675	1.330553	-0.695709	-0.152368	1.316440	-0.374923	-0.106476	1.282235	-0.535074	-0.089458	0.856756	-0.415829	-0.102367	0.861137	-0.666094	-0.142249	0.910044	-0.392062	-0.155676	0.920402	-0.685936	-0.257525	0.890625	-0.501195	-0.262746	0.889546	-0.566601	-0.265367	0.886325	-0.534385	-0.173924	0.666653	-0.362837	-0.151461	0.611299	-0.362438	-0.090238	0.631481	-0.362455	-0.104734	0.691499	-0.362451	-0.128215	0.425118	-0.387424	-0.119544	0.411914	-0.506590	-0.239717	0.288043	-0.387152	-0.248742	0.249961	-0.395482	-0.198332	0.229436	-0.384635	-0.182153	0.270240	-0.378997	-0.262183	0.105247	-0.414680	-0.249257	0.110055	-0.493632	-0.318111	0.103780	-0.446826	-0.174283	0.031775	-0.398926	-0.141951	0.045353	-0.469433	-0.114790	0.034442	-0.472448	-0.200692	0.680097	-0.717345	-0.178513	0.622954	-0.723547	-0.116731	0.641372	-0.731590	-0.131823	0.699518	-0.727354	-0.140204	0.412555	-0.715269	-0.117857	0.407211	-0.602261	-0.262917	0.261975	-0.700785	-0.276228	0.225813	-0.688333	-0.217176	0.207051	-0.700244	-0.211722	0.248729	-0.711655	-0.275889	0.111613	-0.677174	-0.263136	0.116558	-0.599298	-0.329018	0.118761	-0.628955	-0.198553	0.035846	-0.689635	-0.160688	0.046682	-0.621368	-0.137200	0.035679	-0.619013	
258	1.2900	-0.238343	1.340917	-0.524254	-0.159592	1.327172	-0.696404	-0.152535	1.312923	-0.374335	-0.106029	1.278909	-0.535250	-0.089602	0.853341	-0.414962	-0.102353	0.856892	-0.666632	-0.143363	0.905141	-0.391338	-0.156080	0.914808	-0.686562	-0.258243	0.886101	-0.501380	-0.263228	0.884992	-0.566900	-0.266054	0.881911	-0.534632	-0.174037	0.664523	-0.362303	-0.151635	0.609137	-0.362187	-0.090392	0.629255	-0.362290	-0.104816	0.689285	-0.362030	-0.128563	0.422980	-0.387607	-0.119961	0.410161	-0.507162	-0.239846	0.285886	-0.387232	-0.248993	0.247862	-0.395472	-0.198505	0.227113	-0.385181	-0.182166	0.267894	-0.379532	-0.263160	0.103366	-0.415040	-0.250241	0.108131	-0.494103	-0.319166	0.101680	-0.447238	-0.174571	0.031574	-0.398891	-0.142173	0.045392	-0.469407	-0.114754	0.034431	-0.472319	-0.200552	0.676730	-0.718016	-0.178242	0.619593	-0.723720	-0.116457	0.638044	-0.731513	-0.131679	0.696191	-0.727719	-0.140619	0.410262	-0.715193	-0.117378	0.404063	-0.602272	-0.263500	0.259466	-0.700862	-0.276928	0.223453	-0.688425	-0.217941	0.204416	-0.699863	-0.212281	0.246021	-0.711306	-0.277224	0.109349	-0.676786	-0.264598	0.114569	-0.598794	-0.330466	0.116460	-0.628708	-0.198882	0.035596	-0.689765	-0.161012	0.046738	-0.621245	-0.137244	0.035632	-0.618953	
259	1.2950	-0.238306	1.338809	-0.524274	-0.159557	1.324507	-0.696957	-0.152699	1.310085	-0.373902	-0.105710	1.276343	-0.535420	-0.089754	0.850743	-0.414094	-0.102369	0.853382	-0.667238	-0.144570	0.900962	-0.390589	-0.156622	0.909821	-0.687157	-0.258889	0.882407	-0.501678	-0.263685	0.881174	-0.567277	-0.266692	0.878283	-0.534980	-0.174158	0.663107	-0.361962	-0.151893	0.607665	-0.362105	-0.090602	0.627634	-0.362208	-0.104874	0.687703	-0.361697	-0.128986	0.421438	-0.387923	-0.120743	0.409029	-0.507786	-0.240153	0.284327	-0.387493	-0.249333	0.246281	-0.395652	-0.198829	0.225365	-0.385738	-0.182384	0.266120	-0.380099	-0.263958	0.101940	-0.415442	-0.250989	0.106632	-0.494577	-0.319989	0.100004	-0.447717	-0.174801	0.031409	-0.398888	-0.142311	0.045417	-0.469429	-0.114710	0.034436	-0.472216	-0.200416	0.674555	-0.718500	-0.178079	0.617386	-0.723704	-0.116265	0.635762	-0.731292	-0.131513	0.693930	-0.727932	-0.141161	0.408547	-0.714890	-0.117429	0.402030	-0.601911	-0.264230	0.257482	-0.700577	-0.277653	0.221537	-0.688202	-0.218715	0.202414	-0.699430	-0.213002	0.244001	-0.710843	-0.278293	0.107548	-0.676336	-0.265755	0.112897	-0.598243	-0.331605	0.114568	-0.628319	-0.199163	0.035408	-0.689821	-0.161274	0.046785	-0.621132	-0.137275	0.035596	-0.618913	
